<svg width="130" height="126" viewBox="0 0 130 126" fill="none" xmlns="http://www.w3.org/2000/svg">
<rect x="30" width="100" height="100" rx="23" fill="#03519D"/>
<path d="M37.5002 39.0202C37.5002 37.5827 38.6668 36.416 40.1043 36.416H59.896C60.5867 36.416 61.2491 36.6904 61.7374 37.1788C62.2258 37.6671 62.5002 38.3295 62.5002 39.0202C62.5002 39.7109 62.2258 40.3732 61.7374 40.8616C61.2491 41.35 60.5867 41.6243 59.896 41.6243H40.1043C38.6668 41.6243 37.5002 40.4577 37.5002 39.0202ZM47.396 81.7285C47.396 82.4192 47.6704 83.0816 48.1587 83.5699C48.6471 84.0583 49.3095 84.3327 50.0002 84.3327C50.6908 84.3327 51.3532 84.0583 51.8416 83.5699C52.33 83.0816 52.6043 82.4192 52.6043 81.7285V61.9368C52.6043 61.2462 52.33 60.5838 51.8416 60.0954C51.3532 59.607 50.6908 59.3327 50.0002 59.3327C49.3095 59.3327 48.6471 59.607 48.1587 60.0954C47.6704 60.5838 47.396 61.2462 47.396 61.9368V81.7285ZM50.0002 46.8327C30.4397 46.8327 14.5835 62.6889 14.5835 82.2493C14.5835 101.81 30.4397 117.666 50.0002 117.666C69.5606 117.666 85.4168 101.81 85.4168 82.2493C85.4168 62.6889 69.5606 46.8327 50.0002 46.8327ZM19.7918 82.2493C19.7918 65.566 33.3168 52.041 50.0002 52.041C66.6835 52.041 80.2085 65.566 80.2085 82.2493C80.2085 98.9327 66.6835 112.458 50.0002 112.458C33.3168 112.458 19.7918 98.9327 19.7918 82.2493ZM79.4481 47.5931C78.9596 47.1047 78.2972 46.8303 77.6064 46.8303C76.9157 46.8303 76.2532 47.1047 75.7648 47.5931C75.2763 48.0815 75.0019 48.744 75.0019 49.4348C75.0019 50.1255 75.2763 50.788 75.7648 51.2764L80.9731 56.4848C81.2149 56.7266 81.5021 56.9185 81.818 57.0494C82.134 57.1802 82.4727 57.2476 82.8148 57.2476C83.1568 57.2476 83.4955 57.1802 83.8115 57.0494C84.1274 56.9185 84.4146 56.7266 84.6564 56.4848C84.8983 56.2429 85.0901 55.9558 85.221 55.6398C85.3519 55.3238 85.4193 54.9851 85.4193 54.6431C85.4193 54.3011 85.3519 53.9624 85.221 53.6464C85.0901 53.3304 84.8983 53.0433 84.6564 52.8014L79.4481 47.5931Z" fill="white"/>
</svg>
